inDegrees=no
num_controls=7
num_derivatives=13
num_iterations=110
num_multipliers=7
num_parameters=0
num_slacks=7
num_states=26
objective=6.159590
objective_accelerations=0.629419
objective_balance=0.065640
objective_effort=0.528383
objective_height=4.819700
objective_ligament=0.116448
solver_duration=1160.413378
status=Solve_Succeeded
success=true
DataType=double
version=3
OpenSimVersion=4.4-2022-07-23-0e9fedc
endheader
time	/jointset/ground_pelvis/pelvis_tilt/value	/jointset/ground_pelvis/pelvis_tx/value	/jointset/ground_pelvis/pelvis_ty/value	/jointset/hip_l/hip_flexion_l/value	/jointset/hip_l/hip_adduction_l/value	/jointset/hip_l/hip_rotation_l/value	/jointset/back/lumbar_extension/value	/jointset/patellofemoral_l/patellar_flexion_l/value	/jointset/knee_l/knee_flexion_l/value	/jointset/knee_l/knee_adduction_l/value	/jointset/knee_l/knee_rotation_l/value	/jointset/ankle_l/ankle_angle_l/value	/jointset/subtalar_l/subtalar_angle_l/value	/jointset/ground_pelvis/pelvis_tilt/speed	/jointset/ground_pelvis/pelvis_tx/speed	/jointset/ground_pelvis/pelvis_ty/speed	/jointset/hip_l/hip_flexion_l/speed	/jointset/hip_l/hip_adduction_l/speed	/jointset/hip_l/hip_rotation_l/speed	/jointset/back/lumbar_extension/speed	/jointset/patellofemoral_l/patellar_flexion_l/speed	/jointset/knee_l/knee_flexion_l/speed	/jointset/knee_l/knee_adduction_l/speed	/jointset/knee_l/knee_rotation_l/speed	/jointset/ankle_l/ankle_angle_l/speed	/jointset/subtalar_l/subtalar_angle_l/speed	/forceset/tau_hip_flexion_l	/forceset/tau_hip_adduction_l	/forceset/tau_hip_rotation_l	/forceset/tau_knee_flexion_l	/forceset/tau_ankle_angle_l	/forceset/tau_subtalar_angle_l	/forceset/tau_lumbar_extension	lambda_cid13_p0	lambda_cid13_p1	lambda_cid13_p2	lambda_cid13_p3	lambda_cid13_p4	lambda_cid13_p5	lambda_cid14_p0	/jointset/ground_pelvis/pelvis_tilt/accel	/jointset/ground_pelvis/pelvis_tx/accel	/jointset/ground_pelvis/pelvis_ty/accel	/jointset/hip_l/hip_flexion_l/accel	/jointset/hip_l/hip_adduction_l/accel	/jointset/hip_l/hip_rotation_l/accel	/jointset/back/lumbar_extension/accel	/jointset/patellofemoral_l/patellar_flexion_l/accel	/jointset/knee_l/knee_flexion_l/accel	/jointset/knee_l/knee_adduction_l/accel	/jointset/knee_l/knee_rotation_l/accel	/jointset/ankle_l/ankle_angle_l/accel	/jointset/subtalar_l/subtalar_angle_l/accel	gamma_cid13_p0	gamma_cid13_p1	gamma_cid13_p2	gamma_cid13_p3	gamma_cid13_p4	gamma_cid13_p5	gamma_cid14_p0
1.5	-0.0123827063489568	-0.01261244422375504	0.8432612022993996	0.7252343643712872	-0.3208355666519963	-0.1257427926419109	-0.8017614855357854	0.8177914627704604	0.817791462770684	-0.09038102605293512	-0.1744891048785081	0.1664972584655566	0.03096778056181688	0.3747610069702908	0.229229669532354	0.4654707401629031	-2.126774975788365	0.08095231947480526	-0.656354830038257	0.8403571244870285	-2.105306243040556	-2.105306243040598	-0.1669320000939289	-0.0002332445198032823	-0.4820795881623831	-0.07945182067328681	-0.2106122406289426	0.02791877802152938	-0.006603853492541535	-0.2231069990319561	0.05504648736986589	0.0408690246553469	0.2861543921410108	-23.97353887015172	-15.76693444836915	4.589561602025113	-8.144762882741178	-665.6219569157747	-72.0938298602442	-13.80295919574305	0.03976153670835995	0.698710708915221	-0.6767766302932146	-0.740280818429024	0.4893660933639533	-0.4155851327061628	2.030242346143399	-1.053216978542333	-1.053216978542324	-0.2383189544783309	0.009763716922844608	-0.3463509102506976	0.4681012739928221	4.650883912640044e-07	8.249402674419927e-07	-2.296129249613213e-06	-1.295948500475289e-07	5.562816840964722e-07	6.159440799999689e-07	3.832518968496706e-07
1.51	-0.008633245356697477	-0.01028543988811327	0.8478811523170776	0.7039313560465374	-0.3200028418172332	-0.1323253691938888	-0.7932581162168575	0.7966880877441938	0.7966880877442502	-0.0920655139585756	-0.1744916467057042	0.1616594829971403	0.03019516107118643	0.3750765754596628	0.2361434021676866	0.4584207384964086	-2.13353957430458	0.08559136294520242	-0.6600892365391693	0.8601872069420644	-2.115065788672609	-2.115065788672957	-0.1699630504731418	-0.0002685699702511626	-0.4853836967649813	-0.075049801236164	-0.2026016592648668	0.02676768439593742	-0.006362709237297711	-0.2194138765537104	0.05615262189064504	0.04030434920018681	0.2784436185135659	-23.35302544695607	-15.69294229290826	4.649267214924748	-8.08125160210192	-660.52429349239	-72.19326805477111	-14.59044215642492	0.01930284593516728	0.6835149816120841	-0.7337718238794153	-0.6014296444403902	0.4511781840193391	-0.3412924446258467	1.939961342200161	-0.8919556875107076	-0.8919556875566349	-0.3350192687241724	-0.009621442675269414	-0.3086269547555173	0.429686029179797	4.694946436805858e-07	9.690746459834745e-07	-2.24304278195137e-06	-1.108667219962046e-07	5.813160770760721e-07	7.047676228285925e-07	3.889058899371222e-07
1.52	-0.004882259011347409	-0.00789013613796335	0.8524276703402804	0.6825693256813885	-0.3191237256057476	-0.1389430746180532	-0.7845603320439725	0.7754961907951694	0.7754961907951309	-0.09378021660570439	-0.1744944299407809	0.1567914292187971	0.0294672485250482	0.3750660775843253	0.2428895524339836	0.4507843412678273	-2.138579383869695	0.09023059482130237	-0.6633806044737736	0.8792400952777136	-2.123010627583615	-2.123010627584268	-0.1729749484156224	-0.0002815260865431469	-0.4881352501472263	-0.07051043177472609	-0.194591077900837	0.02561659077028006	-0.006121564981148847	-0.215720754075503	0.05725875641139888	0.03973967374492664	0.2707328448861014	-22.7308534638831	-15.62034304995716	4.710456461541492	-8.068186081651872	-655.4377048365983	-72.36292319066509	-15.36447206297497	-0.02545173623301922	0.6651942351076794	-0.7940557427105976	-0.3953230282089306	0.4894037745045183	-0.326977419444385	1.874803522266376	-0.6902756343327208	-0.6902756343327253	-0.2344884671317718	0.0142375837542938	-0.2358398661805582	0.4955712788557903	4.727476220447062e-07	1.123957425045461e-06	-2.185242812135664e-06	-9.13509664796482e-08	6.084446669890687e-07	7.91834664273239e-07	3.949203572074418e-07
1.53	-0.001132966027255057	-0.005428262101552561	0.8568950033090771	0.6611653437893691	-0.3181983181002087	-0.1455918376159338	-0.7756760699884169	0.7542338208382181	0.7542338208382402	-0.09552486624282662	-0.1744974693754945	0.1518985978313452	0.02878530320324206	0.3747352073875559	0.2494516000402994	0.4425926124345106	-2.141926588544213	0.09484313227753437	-0.666288818870883	0.8974743099022753	-2.129154985535157	-2.129154985535734	-0.1759613062975035	-0.0003140039478748504	-0.4903353191711761	-0.06586289739746035	-0.1865788793181667	0.02432095325324764	-0.005857953774134713	-0.2123232784169453	0.05850005557823702	0.03897478466169935	0.2630489445962101	-22.09871299222663	-15.45096767780654	4.743000443022344	-7.986158220094726	-650.7087228636378	-72.41220482763241	-16.12464992766029	-0.04546520416602103	0.646649780401087	-0.8450467597204121	-0.2608102842586922	0.4461491943716966	-0.2598628475244041	1.777029543402057	-0.5303400831729539	-0.530340083161513	-0.3315113812814183	-0.01053573276585539	-0.1976799090353046	0.4517287748778679	4.747752467280866e-07	1.290260379660484e-06	-2.122434746281477e-06	-7.099835678128263e-08	6.377983411437994e-07	8.770354229974098e-07	4.013178282970589e-07
1.54	0.002611306146339119	-0.002901779637676198	0.8612777559283249	0.6397366116311782	-0.3172269911274784	-0.1522671066373336	-0.7666136059644409	0.7329192424602188	0.732919242460314	-0.09729953984523051	-0.1745005426411413	0.1469866478559442	0.02815031007675115	0.3740619154800403	0.2558112379270985	0.4338682713580488	-2.143529437106147	0.09941448826136666	-0.6686818091752007	0.914880488960828	-2.133452311791017	-2.133452311791516	-0.1789797414819971	-0.0002882922767503117	-0.4919589677364511	-0.06111999271155656	-0.17856668073554	0.02302531573613969	-0.005594342566772536	-0.208925802758416	0.05974135474504504	0.03820989557836321	0.2553650443063095	-21.46275757600132	-15.28371506039	4.777546723652389	-7.961211201725188	-645.9622535716358	-72.52870568604365	-16.87123725504763	-0.09393607838170825	0.624712291203909	-0.9005781913396722	-0.04645180569190119	0.4811674800246707	-0.2239326008857702	1.709196409064908	-0.3208692951961491	-0.3208692951961472	-0.2409039276541772	0.02587549024593028	-0.1205557744461534	0.5146453405833714	4.441394003921063e-07	1.542721265217462e-06	-1.880200901517851e-06	-2.120006952083222e-08	6.345237927614286e-07	9.359256992674672e-07	3.936744426827117e-07
1.55	0.00634716306116154	-0.0003127654244332466	0.8655707315746286	0.6183004291257402	-0.3162100658499037	-0.1589650507038653	-0.757381323771772	0.7115708300176874	0.711570830017793	-0.09910358469111058	-0.1745038800907699	0.1420613542694785	0.02756336601362509	0.3730542718267574	0.2619524806297654	0.4246493088509435	-2.14342769718873	0.1039534120820101	-0.6707995865118297	0.9314294942899428	-2.135930163482587	-2.135930163482802	-0.1818616007431582	-0.0003529592120670604	-0.4930065883471813	-0.05626529076275155	-0.1706575388028783	0.0214802599231668	-0.005328262489020011	-0.2058130101464057	0.06098268191932873	0.03739246208629243	0.2478221201588799	-20.86416428560243	-15.08306286948859	4.802154367289303	-7.843421272378945	-641.7291867487097	-72.66439676089152	-17.60507653064255	-0.1124449629288022	0.6029834523188317	-0.9440734479743824	0.08041162393486467	0.4375983529793046	-0.1892388199736303	1.60578430296118	-0.1663124449302997	-0.1663124448876664	-0.3163897444938719	-0.01893269820460999	-0.08281701459548263	0.4712177409762589	3.758695548381687e-07	1.894451071207559e-06	-1.431237354967276e-06	6.252475927854015e-08	5.936558575428341e-07	9.645017240143089e-07	3.69853548257276e-07
1.56	0.01007129024864208	0.002336491854341506	0.8697692139623452	0.5968736489661739	-0.3151482826301659	-0.1656808802477444	-0.7479879451841824	0.6902066251904676	0.6902066251906069	-0.1009373606933749	-0.1745071231923071	0.1371283941148629	0.02702503599377605	0.3717159700083201	0.2678598510334588	0.414969619640668	-2.141648967932262	0.108386076698496	-0.6722589046453507	0.9470997679440615	-2.136610788725867	-2.136610788725797	-0.1849259727702004	-0.0002694226587374579	-0.4934922813662736	-0.05139718405605694	-0.1627483968702636	0.01993520411013449	-0.005062182410975641	-0.202700217534414	0.062224009093602	0.03657502859416802	0.2402791960114293	-20.26064276334466	-14.88456191120435	4.8285780211795	-7.780070030903894	-637.4605507386066	-72.84765803480759	-18.32652403872787	-0.1600677114119472	0.5779378314087064	-0.9927235319737323	0.2889460621183438	0.4599156391932749	-0.09224076026382616	1.533450074066029	0.03857599446199774	0.03857599446199805	-0.2774064808302609	0.05551618797571845	-0.008170256119163218	0.5173262921612886	2.69441106213042e-07	2.236661739786647e-06	-8.399142053925289e-07	1.697183699404125e-07	4.902643046975666e-07	9.253571815699646e-07	3.2816744593701e-07
1.57	0.01378014782497079	0.005043594038470062	0.8738686370367061	0.5754736429438896	-0.3140422252135465	-0.1724102752925715	-0.738441920821034	0.6688450977587005	0.6688450977587569	-0.1028003205132556	-0.1745101369148093	0.1321937005992127	0.02653617411435574	0.3700043316295598	0.2735155957509301	0.4048491022479946	-2.138075510533346	0.1128078773580424	-0.6735285773905124	0.9619586105143206	-2.135389943219829	-2.135389943219836	-0.1876802287064586	-0.0003209095617208643	-0.4933489369192245	-0.0463701247914429	-0.1551313522310344	0.01858956609733522	-0.004872700856445345	-0.1995046400898825	0.06318850791934555	0.03557187180283258	0.233024661131595	-19.7860719599725	-14.57730070526513	4.831353760752815	-7.584057873630616	-633.686146354501	-72.82880020945542	-19.02304777646519	-0.1844174080355747	0.5527212553840518	-1.031558952201965	0.4330261393249816	0.4302895164368069	-0.1304064025668814	1.440127223428798	0.209506530990212	0.2095065309784942	-0.2760965965592987	-0.03356634855640132	0.04029284856432435	0.495676054920379	1.153144037489295e-07	2.566973486601977e-06	-7.064155203756884e-08	3.062479579304096e-07	3.087182298189584e-07	8.01561930136639e-07	2.64149833748206e-07
1.58	0.01747034791615129	0.007805919362467857	0.8778648863152828	0.5541176676077191	-0.3128925543429165	-0.1791495822390393	-0.7287517028571932	0.6475049123224969	0.6475049123223842	-0.1046911551818564	-0.1745132825500907	0.1272633817387223	0.02609763888984308	0.3679844729736165	0.2789044790073067	0.3943348604838031	-2.132842830712568	0.1171087675016631	-0.6742412849726455	0.9759384880814415	-2.132342389621168	-2.132342389621252	-0.1905009425041371	-0.000295805229548602	-0.4926173503342815	-0.04133185307447122	-0.1475143075918187	0.01724392808450691	-0.004683219302419063	-0.1963090626453312	0.06415300674507965	0.03456871501146334	0.225770126251762	-19.31457196796248	-14.27029604772933	4.835077703582405	-7.403231811518515	-629.9796293186225	-72.83387227653928	-19.68674825459917	-0.2217117668478862	0.5245655391892168	-1.071468406277387	0.6207905464911472	0.4357335360083736	0.01915227234235872	1.357657073438776	0.4039176129865411	0.4039176129865407	-0.2906980531141444	0.07083443500741038	0.1094781714589964	0.5195687826328188	1.297324683110988e-08	2.755608752694768e-06	4.170528649452493e-07	3.885705113471994e-07	1.928983484164e-07	7.081687645645351e-07	2.205727095561884e-07
